<?xml version="1.0" ?><svg enable-background="new 0 0 500 500" id="Layer_1" version="1.1" viewBox="0 0 500 500" xml:space="preserve" xmlns="http://www.w3.org/2000/svg" xmlns:xlink="http://www.w3.org/1999/xlink"><g><g><g><g><path d="M189.39,445.509l-9.263,7.021c-8.98,6.807-21.779,5.046-28.586-3.935l-66.945-88.317      c-1.813-2.392-1.344-5.8,1.048-7.613l33.123-25.107c2.392-1.813,5.8-1.344,7.613,1.048l66.945,88.317      C200.132,425.904,198.37,438.702,189.39,445.509z" fill="#FECC5D"/><path d="M143.728,368.222l-41.256,11.164c-7.901,2.138-16.039-2.534-18.177-10.435L73.13,327.695      c-2.138-7.901,2.534-16.039,10.435-18.177l41.256-11.164c7.901-2.138,16.039,2.534,18.177,10.435l11.164,41.256      C156.301,357.945,151.629,366.083,143.728,368.222z" fill="#F1BB4C"/><path d="M166.027,317.332l-77.031,22.467c-31.032,8.397-62.996-9.951-71.393-40.983l-1.37-5.061      c-8.397-31.032,9.951-62.996,40.983-71.393l77.031-22.467L166.027,317.332z" fill="#FECC5D"/><path d="M374.052,341.74l-6.404-1.109c-27.841-11.008-58.733-25.478-87.083-25.976l-114.538,2.676      l-31.779-117.438l92.446-47.623c29.997-17.39,53.937-50.54,75.293-80.735v0c3.942-2.276,9.024,0.579,10.457,5.876      l68.754,254.072C382.772,337.301,379.074,342.609,374.052,341.74z" fill="#F2F2F2"/></g></g><g><path d="M416.154,179.852c-1.03-4.012,1.387-8.099,5.399-9.13l51.335-13.182c4.012-1.03,8.099,1.387,9.13,5.399     c1.03,4.012-1.387,8.099-5.399,9.13l-51.335,13.182C421.272,186.281,417.184,183.863,416.154,179.852z" fill="#4384EC"/><path d="M372.273,105.766c-0.535-2.084-0.174-4.381,1.184-6.262l28.324-39.199     c2.426-3.357,7.114-4.112,10.472-1.686c3.356,2.426,4.112,7.114,1.686,10.472l-28.324,39.199     c-2.426,3.357-7.114,4.113-10.472,1.686C373.666,108.908,372.693,107.403,372.273,105.766z" fill="#4384EC"/><path d="M415.479,274.027c-0.42-1.637-0.293-3.425,0.487-5.072c1.773-3.744,6.245-5.341,9.989-3.568     l43.705,20.704c3.743,1.774,5.34,6.247,3.568,9.989c-1.774,3.744-6.245,5.341-9.989,3.568l-43.706-20.704     C417.438,277.95,416.014,276.111,415.479,274.027z" fill="#4384EC"/></g></g><path d="M367.648,340.631l6.404,1.109c5.022,0.869,8.72-4.438,7.146-10.256l-8.05-29.746   c-49.729-7.843-100.491-6.616-149.823,3.66l-57.298,11.935l114.538-2.676C308.915,315.154,339.807,329.624,367.648,340.631z" fill="#E8E6E6"/></g></svg>