<svg xmlns="http://www.w3.org/2000/svg" height="120px" viewBox="0 0 960 960" width="120px" fill="#EF4444">
  <!-- Trash Bin Outline -->
  <path d="M280 840q-33 0-56.5-23.5T200 760v-520h-40v-80h200v-40h240v40h200v80h-40v520q0 33-23.5 56.5T680 840H280Zm400-600H280v520h400v-520ZM360 580h80v-360h-80v360Zm160 0h80v-360h-80v360ZM280 120v-520 520Z" fill="#EF4444"/>

  <!-- File Folder Icon -->
  <path id="folder" d="M370 150h220v120H370z" fill="#FFD700" stroke="#FFD700" stroke-width="4"/>
  <path id="folder-lid" d="M370 150h220l50 40v20H370v-20l50-40z" fill="#FFC107" stroke="#FFC107" stroke-width="4"/>

  <!-- Document Icon -->
  <path id="document" d="M410 170h80v120h-80z" fill="#B9B9B9" stroke="#6B7280" stroke-width="4"/>

  <!-- Animation -->
  <style>
    @keyframes moveToFolder {
      0% { transform: translate(0, 0); }
      100% { transform: translate(60px, 0); }
    }
    @keyframes moveToBin {
      0% { transform: translate(0, 0); }
      100% { transform: translate(60px, 700px); }
    }

    #document {
      animation: moveToFolder 3s ease-in-out infinite;
    }

    #folder {
      position: absolute;
      animation: moveToBin 3s ease-in-out infinite;
    }
  </style>
</svg>
