<?xml version="1.0" encoding="iso-8859-1"?>
<!-- Uploaded to: SVG Repo, www.svgrepo.com, Generator: SVG Repo Mixer Tools -->
<svg height="800px" width="800px" version="1.1" id="Layer_1" xmlns="http://www.w3.org/2000/svg" xmlns:xlink="http://www.w3.org/1999/xlink" 
	 viewBox="0 0 512.01 512.01" xml:space="preserve">
<circle style="fill:#FAD24D;" cx="256" cy="256.005" r="256"/>
<path style="fill:#FFFFFF;" d="M113.733,64.665H342.21l60.209,60.208v310.298H113.732L113.733,64.665L113.733,64.665z"/>
<path style="fill:#DCE3DB;" d="M157.263,144.124h201.623v4.546H157.263V144.124z M157.263,193.103L157.263,193.103h201.623v4.551
	H157.263V193.103z M157.263,201.538L157.263,201.538h201.623v4.548H157.263V201.538z M157.263,209.973L157.263,209.973h201.623
	v4.548H157.263V209.973z M157.263,218.408L157.263,218.408h201.632v4.546H157.263V218.408z M157.263,152.558L157.263,152.558
	h201.623v4.548H157.263V152.558z M157.263,160.993L157.263,160.993h201.623v4.549H157.263V160.993z M157.263,169.427
	L157.263,169.427h201.632v4.546H157.263V169.427z M157.261,177.862L157.261,177.862h154.44v4.548h-154.44V177.862z M157.261,226.841
	L157.261,226.841h154.44v4.55h-154.44V226.841z"/>
<path style="fill:#20D0C2;" d="M342.211,64.665v60.208h60.208L342.211,64.665z"/>
<path style="fill:#F7FAFA;" d="M402.419,185.08v-60.206h-60.206L402.419,185.08z"/>
<path style="fill:#DCE3DB;" d="M157.263,255.912h201.623v4.545H157.263V255.912z M157.263,304.891L157.263,304.891h201.623v4.55
	H157.263V304.891z M157.263,313.326L157.263,313.326h201.623v4.549H157.263V313.326z M157.263,321.761L157.263,321.761h201.623
	v4.548H157.263V321.761z M157.263,330.195L157.263,330.195h201.632v4.548H157.263V330.195z M157.263,264.346L157.263,264.346
	h201.623v4.549H157.263V264.346z M157.263,272.781L157.263,272.781h201.623v4.548H157.263V272.781z M157.263,281.215
	L157.263,281.215h201.632v4.548H157.263V281.215z M157.261,289.649L157.261,289.649h154.44v4.548h-154.44V289.649z M157.261,338.629
	L157.261,338.629h154.44v4.55h-154.44V338.629z"/>
<circle style="fill:#FF5B62;" cx="412.983" cy="387.628" r="99.027"/>
<path style="fill:#FFFFFF;" d="M412.979,299.167c48.853,0,88.457,39.604,88.457,88.46c0,48.854-39.605,88.46-88.457,88.46
	c-48.855,0-88.46-39.607-88.46-88.46C324.52,338.771,364.125,299.167,412.979,299.167z"/>
<path style="fill:#FAD24D;" d="M391.179,363.296c-2.983,0-5.403-2.419-5.403-5.402s2.42-5.403,5.403-5.403h65.854l-13.211-15.479
	c-1.934-2.261-1.671-5.664,0.591-7.598c2.261-1.934,5.663-1.669,7.597,0.592l20.571,24.1c0.959,0.975,1.552,2.311,1.552,3.789
	c0,1.476-0.593,2.813-1.552,3.789L452.01,385.78c-1.934,2.261-5.337,2.525-7.597,0.591c-2.261-1.934-2.525-5.337-0.591-7.597
	l13.211-15.479L391.179,363.296L391.179,363.296z"/>
<path style="fill:#20D0C2;" d="M434.779,411.957c2.983,0,5.403,2.419,5.403,5.402s-2.42,5.403-5.403,5.403h-65.854l13.211,15.479
	c1.934,2.261,1.671,5.664-0.591,7.598c-2.261,1.934-5.663,1.669-7.597-0.592l-20.572-24.1c-0.959-0.975-1.551-2.311-1.551-3.789
	c0-1.476,0.593-2.813,1.552-3.789l20.571-24.099c1.934-2.261,5.337-2.525,7.597-0.591c2.261,1.934,2.525,5.337,0.591,7.597
	l-13.211,15.479L434.779,411.957L434.779,411.957z"/>
</svg>