<?xml version="1.0" encoding="UTF-8"?>
<!DOCTYPE svg PUBLIC "-//W3C//DTD SVG 1.1//EN" "http://www.w3.org/Graphics/SVG/1.1/DTD/svg11.dtd">
<svg xmlns="http://www.w3.org/2000/svg" version="1.1" width="128px" height="128px" style="shape-rendering:geometricPrecision; text-rendering:geometricPrecision; image-rendering:optimizeQuality; fill-rule:evenodd; clip-rule:evenodd" xmlns:xlink="http://www.w3.org/1999/xlink">
<g><path style="opacity:1" fill="#5c9eda" d="M 28.5,5.5 C 29.1002,8.62468 30.2669,8.95801 32,6.5C 32.1478,8.5766 31.6478,10.5766 30.5,12.5C 28.38,10.9907 26.7133,11.324 25.5,13.5C 23.4113,12.7365 21.078,12.7365 18.5,13.5C 21.429,10.3637 24.7623,7.697 28.5,5.5 Z"/></g>
<g><path style="opacity:1" fill="#b5def4" d="M 65.5,19.5 C 62.8111,17.6567 59.9777,15.9901 57,14.5C 55.1839,15.3295 53.3506,16.1628 51.5,17C 50.6634,18.0113 50.33,19.1779 50.5,20.5C 52.8568,20.3367 55.1902,20.5034 57.5,21C 59.1744,24.5187 61.841,26.6854 65.5,27.5C 65.5,29.5 65.5,31.5 65.5,33.5C 63.2011,32.8621 61.0344,31.8621 59,30.5C 57.8869,31.7111 56.7202,31.7111 55.5,30.5C 56.0267,33.025 56.0267,35.6916 55.5,38.5C 54.4877,35.6619 52.4877,34.3286 49.5,34.5C 49.238,33.0222 49.5713,31.6888 50.5,30.5C 52.5311,29.4613 53.8645,27.7946 54.5,25.5C 56.1112,26.3202 56.7778,27.6536 56.5,29.5C 57.5,29.5 58.5,29.5 59.5,29.5C 59.7135,27.8561 59.3802,26.3561 58.5,25C 55.104,22.5452 51.4374,22.0452 47.5,23.5C 45.8405,22.8284 44.5072,21.8284 43.5,20.5C 44.5659,19.3079 45.3992,19.6412 46,21.5C 46.0178,19.2028 45.8511,16.8695 45.5,14.5C 42.3979,14.846 39.5645,14.1793 37,12.5C 36.7216,13.4158 36.2216,14.0825 35.5,14.5C 35.281,13.325 35.6143,12.325 36.5,11.5C 38.7534,10.7469 40.5867,9.41359 42,7.5C 42.3333,7.83333 42.6667,8.16667 43,8.5C 44.194,6.47459 45.694,6.14126 47.5,7.5C 51.1276,7.27402 53.7942,5.60735 55.5,2.5C 57.2705,3.03539 57.6039,3.86872 56.5,5C 58.556,5.3108 60.556,5.8108 62.5,6.5C 64.0251,10.191 66.6917,12.691 70.5,14C 66.5408,13.7913 64.8742,15.6246 65.5,19.5 Z"/></g>
<g><path style="opacity:1" fill="#fafafa" d="M 42.5,-0.5 C 48.1667,-0.5 53.8333,-0.5 59.5,-0.5C 68.2452,1.54172 75.9119,5.70839 82.5,12C 89.1261,11.5071 95.7928,11.0071 102.5,10.5C 106.876,10.3627 111.209,10.196 115.5,10C 109.891,12.5709 104.557,15.4042 99.5,18.5C 97.8958,19.287 97.2291,20.6203 97.5,22.5C 94.6575,23.1723 92.1575,24.5056 90,26.5C 89.5001,38.1619 89.3335,49.8286 89.5,61.5C 84.536,63.6462 79.536,65.8128 74.5,68C 70.5817,69.1564 66.5817,69.6564 62.5,69.5C 62.5756,75.8085 62.5756,81.8085 62.5,87.5C 62.1667,87.5 61.8333,87.5 61.5,87.5C 61.5,78.5 61.5,69.5 61.5,60.5C 62.4916,60.6716 63.1583,60.3382 63.5,59.5C 64.1174,59.3893 64.6174,59.056 65,58.5C 65.4994,53.1771 65.666,47.8437 65.5,42.5C 65.2786,41.2652 64.6119,40.2652 63.5,39.5C 65.0863,37.8273 65.7529,35.8273 65.5,33.5C 65.5,31.5 65.5,29.5 65.5,27.5C 65.5,24.8333 65.5,22.1667 65.5,19.5C 64.8742,15.6246 66.5408,13.7913 70.5,14C 66.6917,12.691 64.0251,10.191 62.5,6.5C 60.556,5.8108 58.556,5.3108 56.5,5C 57.6039,3.86872 57.2705,3.03539 55.5,2.5C 53.7942,5.60735 51.1276,7.27402 47.5,7.5C 45.694,6.14126 44.194,6.47459 43,8.5C 42.6667,8.16667 42.3333,7.83333 42,7.5C 40.5867,9.41359 38.7534,10.7469 36.5,11.5C 35.6143,12.325 35.281,13.325 35.5,14.5C 34.8333,15.8333 33.8333,16.8333 32.5,17.5C 30.8278,16.1304 29.1612,14.7971 27.5,13.5C 26.8333,13.5 26.1667,13.5 25.5,13.5C 26.7133,11.324 28.38,10.9907 30.5,12.5C 31.6478,10.5766 32.1478,8.5766 32,6.5C 30.2669,8.95801 29.1002,8.62468 28.5,5.5C 32.9319,2.91294 37.5985,0.912943 42.5,-0.5 Z"/></g>
<g><path style="opacity:1" fill="#629cdd" d="M 75.5,8.5 C 76.7432,10.1639 78.4098,11.3305 80.5,12C 77.461,12.8128 75.7944,11.6461 75.5,8.5 Z"/></g>
<g><path style="opacity:1" fill="#90bae3" d="M 71.5,8.5 C 73.5492,8.70575 73.8825,9.53908 72.5,11C 73.5,11.8333 74.5,12.6667 75.5,13.5C 73.6267,14.0891 71.96,13.4224 70.5,11.5C 71.1272,10.5832 71.4606,9.58317 71.5,8.5 Z"/></g>
<g><path style="opacity:1" fill="#3570bb" d="M 15.5,17.5 C 16.209,18.404 17.209,18.7373 18.5,18.5C 17.3434,22.0179 15.6768,25.3512 13.5,28.5C 14.5244,29.8518 15.5244,31.1851 16.5,32.5C 15.1667,32.1667 13.8333,31.8333 12.5,31.5C 10.8102,31.1436 9.81018,30.1436 9.5,28.5C 10.7417,24.3447 12.7417,20.678 15.5,17.5 Z"/></g>
<g><path style="opacity:1" fill="#3f87d1" d="M 25.5,13.5 C 26.1667,13.5 26.8333,13.5 27.5,13.5C 27.7852,15.288 27.4519,16.9547 26.5,18.5C 23.275,21.5605 20.6083,25.0605 18.5,29C 20.4318,34.2544 21.4318,39.7544 21.5,45.5C 20.2101,44.9423 19.3768,43.9423 19,42.5C 18.6667,39.5 18.3333,36.5 18,33.5C 17.6174,32.944 17.1174,32.6107 16.5,32.5C 15.5244,31.1851 14.5244,29.8518 13.5,28.5C 15.6768,25.3512 17.3434,22.0179 18.5,18.5C 17.209,18.7373 16.209,18.404 15.5,17.5C 16.0256,15.7697 17.0256,14.4363 18.5,13.5C 21.078,12.7365 23.4113,12.7365 25.5,13.5 Z"/></g>
<g><path style="opacity:1" fill="#e4f3fc" d="M 119.5,9.5 C 118.956,17.7111 118.289,24.0445 117.5,28.5C 115.048,28.6236 113.048,29.6236 111.5,31.5C 107.784,30.6544 104.117,29.6544 100.5,28.5C 99.5041,34.4632 99.1707,40.4632 99.5,46.5C 99.5,49.1667 99.5,51.8333 99.5,54.5C 98.191,45.8208 98.191,33.8208 99.5,18.5C 104.557,15.4042 109.891,12.5709 115.5,10C 111.209,10.196 106.876,10.3627 102.5,10.5C 108.122,8.76234 113.788,8.42901 119.5,9.5 Z"/></g>
<g><path style="opacity:1" fill="#96d5f4" d="M 43.5,20.5 C 43.5,21.5 43.5,22.5 43.5,23.5C 42.448,23.6495 41.448,23.4828 40.5,23C 39.3601,21.0266 38.0267,19.1933 36.5,17.5C 35.2638,18.2458 33.9305,18.5792 32.5,18.5C 32.5,18.1667 32.5,17.8333 32.5,17.5C 33.8333,16.8333 34.8333,15.8333 35.5,14.5C 36.2216,14.0825 36.7216,13.4158 37,12.5C 39.5645,14.1793 42.3979,14.846 45.5,14.5C 45.8511,16.8695 46.0178,19.2028 46,21.5C 45.3992,19.6412 44.5659,19.3079 43.5,20.5 Z"/></g>
<g><path style="opacity:1" fill="#dbe0da" d="M 65.5,19.5 C 65.5,22.1667 65.5,24.8333 65.5,27.5C 61.841,26.6854 59.1744,24.5187 57.5,21C 55.1902,20.5034 52.8568,20.3367 50.5,20.5C 50.33,19.1779 50.6634,18.0113 51.5,17C 53.3506,16.1628 55.1839,15.3295 57,14.5C 59.9777,15.9901 62.8111,17.6567 65.5,19.5 Z"/></g>
<g><path style="opacity:1" fill="#bde3f5" d="M 28.5,24.5 C 30.1667,24.5 31.8333,24.5 33.5,24.5C 33.3832,26.4835 34.0499,28.1502 35.5,29.5C 34.7542,30.7362 34.4208,32.0695 34.5,33.5C 34.5,34.1667 34.5,34.8333 34.5,35.5C 33.596,34.791 33.2627,33.791 33.5,32.5C 30.5198,32.3797 27.6865,31.713 25,30.5C 23.608,26.7796 24.7747,24.7796 28.5,24.5 Z"/></g>
<g><path style="opacity:1" fill="#cfe9fb" d="M 119.5,9.5 C 119.5,17.8333 119.5,26.1667 119.5,34.5C 118.77,38.0606 118.103,41.7272 117.5,45.5C 114.481,44.6594 111.481,43.6594 108.5,42.5C 106.939,44.9732 104.939,46.9732 102.5,48.5C 101.482,47.8075 100.482,47.1408 99.5,46.5C 99.1707,40.4632 99.5041,34.4632 100.5,28.5C 104.117,29.6544 107.784,30.6544 111.5,31.5C 113.048,29.6236 115.048,28.6236 117.5,28.5C 118.289,24.0445 118.956,17.7111 119.5,9.5 Z"/></g>
<g><path style="opacity:1" fill="#2461ba" d="M 12.5,31.5 C 13.8333,31.8333 15.1667,32.1667 16.5,32.5C 16.6759,37.7233 17.3425,42.8899 18.5,48C 18.472,49.0698 18.1386,49.9032 17.5,50.5C 14.9695,44.5652 13.3029,38.2319 12.5,31.5 Z"/></g>
<g><path style="opacity:1" fill="#56a2de" d="M 27.5,13.5 C 29.1612,14.7971 30.8278,16.1304 32.5,17.5C 32.5,17.8333 32.5,18.1667 32.5,18.5C 31.3412,19.7403 30.3412,21.0736 29.5,22.5C 24.3817,22.0855 21.715,24.4189 21.5,29.5C 21.4534,31.0377 22.1201,32.0377 23.5,32.5C 24.7124,39.4432 25.3791,46.4432 25.5,53.5C 24.2618,50.7387 22.9285,48.072 21.5,45.5C 21.4318,39.7544 20.4318,34.2544 18.5,29C 20.6083,25.0605 23.275,21.5605 26.5,18.5C 27.4519,16.9547 27.7852,15.288 27.5,13.5 Z"/></g>
<g><path style="opacity:1" fill="#dfe0c6" d="M 43.5,20.5 C 44.5072,21.8284 45.8405,22.8284 47.5,23.5C 51.4374,22.0452 55.104,22.5452 58.5,25C 59.3802,26.3561 59.7135,27.8561 59.5,29.5C 58.5,29.5 57.5,29.5 56.5,29.5C 56.7778,27.6536 56.1112,26.3202 54.5,25.5C 53.8645,27.7946 52.5311,29.4613 50.5,30.5C 49.5713,31.6888 49.238,33.0222 49.5,34.5C 52.4877,34.3286 54.4877,35.6619 55.5,38.5C 56.0267,35.6916 56.0267,33.025 55.5,30.5C 56.7202,31.7111 57.8869,31.7111 59,30.5C 61.0344,31.8621 63.2011,32.8621 65.5,33.5C 65.7529,35.8273 65.0863,37.8273 63.5,39.5C 64.6119,40.2652 65.2786,41.2652 65.5,42.5C 63.0901,42.9209 61.2568,44.2542 60,46.5C 58.8514,49.7794 58.0181,53.1127 57.5,56.5C 57.5654,56.9382 57.3988,57.2716 57,57.5C 55.9805,56.3128 54.8139,55.3128 53.5,54.5C 51.2534,55.3742 48.9201,55.7076 46.5,55.5C 46.7678,57.099 46.4345,58.4324 45.5,59.5C 43.3432,58.5933 41.0098,57.9267 38.5,57.5C 37.8333,55.8333 37.1667,54.1667 36.5,52.5C 33.0864,48.2339 34.0864,45.5672 39.5,44.5C 43.083,46.1865 46.083,45.5198 48.5,42.5C 47.5,41.6667 46.5,40.8333 45.5,40C 45.8333,39.6667 46.1667,39.3333 46.5,39C 41.474,39.1682 37.474,37.3348 34.5,33.5C 34.4208,32.0695 34.7542,30.7362 35.5,29.5C 34.0499,28.1502 33.3832,26.4835 33.5,24.5C 31.8333,24.5 30.1667,24.5 28.5,24.5C 28.8333,23.8333 29.1667,23.1667 29.5,22.5C 30.3412,21.0736 31.3412,19.7403 32.5,18.5C 33.9305,18.5792 35.2638,18.2458 36.5,17.5C 38.0267,19.1933 39.3601,21.0266 40.5,23C 41.448,23.4828 42.448,23.6495 43.5,23.5C 43.5,22.5 43.5,21.5 43.5,20.5 Z"/></g>
<g><path style="opacity:1" fill="#87c6e8" d="M 29.5,22.5 C 29.1667,23.1667 28.8333,23.8333 28.5,24.5C 24.7747,24.7796 23.608,26.7796 25,30.5C 27.6865,31.713 30.5198,32.3797 33.5,32.5C 33.2627,33.791 33.596,34.791 34.5,35.5C 34.6107,36.1174 34.944,36.6174 35.5,37C 31.8987,42.015 31.5654,47.1817 34.5,52.5C 26.6988,54.176 24.6988,51.3427 28.5,44C 27.5986,41.1289 26.5986,38.2956 25.5,35.5C 26.4439,33.8634 25.7773,32.8634 23.5,32.5C 22.1201,32.0377 21.4534,31.0377 21.5,29.5C 21.715,24.4189 24.3817,22.0855 29.5,22.5 Z"/></g>
<g><path style="opacity:1" fill="#70b2dd" d="M 23.5,32.5 C 25.7773,32.8634 26.4439,33.8634 25.5,35.5C 26.5986,38.2956 27.5986,41.1289 28.5,44C 24.6988,51.3427 26.6988,54.176 34.5,52.5C 35.1667,52.5 35.8333,52.5 36.5,52.5C 37.1667,54.1667 37.8333,55.8333 38.5,57.5C 38.8333,58.1667 39.1667,58.8333 39.5,59.5C 38.1266,59.6567 36.7932,59.49 35.5,59C 36.2797,57.927 36.113,56.7604 35,55.5C 34.6667,55.8333 34.3333,56.1667 34,56.5C 31.9571,54.5229 29.4571,53.5229 26.5,53.5C 26.1667,53.5 25.8333,53.5 25.5,53.5C 25.3791,46.4432 24.7124,39.4432 23.5,32.5 Z"/></g>
<g><path style="opacity:1" fill="#98cdd4" d="M 50.5,41.5 C 50.56,40.9569 50.8933,40.6236 51.5,40.5C 53.6414,41.8076 55.6414,43.3076 57.5,45C 57,45.5 56.5,46 56,46.5C 54.1789,44.9915 52.3456,43.3248 50.5,41.5 Z"/></g>
<g><path style="opacity:1" fill="#cac8a7" d="M 34.5,33.5 C 37.474,37.3348 41.474,39.1682 46.5,39C 46.1667,39.3333 45.8333,39.6667 45.5,40C 46.5,40.8333 47.5,41.6667 48.5,42.5C 46.083,45.5198 43.083,46.1865 39.5,44.5C 34.0864,45.5672 33.0864,48.2339 36.5,52.5C 35.8333,52.5 35.1667,52.5 34.5,52.5C 31.5654,47.1817 31.8987,42.015 35.5,37C 34.944,36.6174 34.6107,36.1174 34.5,35.5C 34.5,34.8333 34.5,34.1667 34.5,33.5 Z"/></g>
<g><path style="opacity:1" fill="#1e4898" d="M 9.5,28.5 C 9.81018,30.1436 10.8102,31.1436 12.5,31.5C 13.3029,38.2319 14.9695,44.5652 17.5,50.5C 18.3696,52.2737 19.703,53.607 21.5,54.5C 18.495,54.747 15.995,53.747 14,51.5C 13.0595,46.9524 11.0595,42.9524 8,39.5C 7.80912,41.7078 7.30912,43.7078 6.5,45.5C 6.3671,39.5109 7.3671,33.8443 9.5,28.5 Z"/></g>
<g><path style="opacity:1" fill="#bddbf2" d="M 117.5,45.5 C 116.449,50.6074 114.115,54.9408 110.5,58.5C 107.813,58.6641 105.146,58.4974 102.5,58C 101.364,56.8549 100.364,55.6883 99.5,54.5C 99.5,51.8333 99.5,49.1667 99.5,46.5C 100.482,47.1408 101.482,47.8075 102.5,48.5C 104.939,46.9732 106.939,44.9732 108.5,42.5C 111.481,43.6594 114.481,44.6594 117.5,45.5 Z"/></g>
<g><path style="opacity:1" fill="#77bce8" d="M 65.5,42.5 C 65.666,47.8437 65.4994,53.1771 65,58.5C 64.6174,59.056 64.1174,59.3893 63.5,59.5C 61.2845,58.956 59.2845,57.956 57.5,56.5C 58.0181,53.1127 58.8514,49.7794 60,46.5C 61.2568,44.2542 63.0901,42.9209 65.5,42.5 Z"/></g>
<g><path style="opacity:1" fill="#adc8e2" d="M 99.5,18.5 C 98.191,33.8208 98.191,45.8208 99.5,54.5C 100.364,55.6883 101.364,56.8549 102.5,58C 105.146,58.4974 107.813,58.6641 110.5,58.5C 108.628,62.2763 105.795,63.943 102,63.5C 101.5,72.8274 101.334,82.1607 101.5,91.5C 101.167,91.5 100.833,91.5 100.5,91.5C 100.5,91.1667 100.5,90.8333 100.5,90.5C 100.5,87.8333 100.5,85.1667 100.5,82.5C 98.2887,62.8081 97.2887,42.8081 97.5,22.5C 97.2291,20.6203 97.8958,19.287 99.5,18.5 Z"/></g>
<g><path style="opacity:1" fill="#92c3e6" d="M 57.5,56.5 C 59.2845,57.956 61.2845,58.956 63.5,59.5C 63.1583,60.3382 62.4916,60.6716 61.5,60.5C 59.4595,59.4808 57.4595,59.4808 55.5,60.5C 56.9905,61.2436 58.4905,61.9103 60,62.5C 60.4955,64.4727 60.6621,66.4727 60.5,68.5C 57.0504,69.2436 55.3838,67.9103 55.5,64.5C 51.8649,64.3444 51.5315,63.1777 54.5,61C 52.3365,60.5667 50.3365,61.0667 48.5,62.5C 47.4163,62.315 46.4163,61.9817 45.5,61.5C 45.5,60.8333 45.5,60.1667 45.5,59.5C 46.4345,58.4324 46.7678,57.099 46.5,55.5C 48.9201,55.7076 51.2534,55.3742 53.5,54.5C 54.8139,55.3128 55.9805,56.3128 57,57.5C 57.3988,57.2716 57.5654,56.9382 57.5,56.5 Z"/></g>
<g><path style="opacity:1" fill="#18397c" d="M 21.5,54.5 C 22.531,55.2485 23.6976,55.9152 25,56.5C 25.7401,57.7494 25.5735,58.7494 24.5,59.5C 22.575,57.5381 20.2417,56.7048 17.5,57C 19.5644,58.0178 19.8977,59.3511 18.5,61C 18.9504,62.2853 19.6171,63.452 20.5,64.5C 19.9747,65.1924 19.3081,65.6924 18.5,66C 20.3333,68.1667 22.1667,70.3333 24,72.5C 24.3333,72.1667 24.6667,71.8333 25,71.5C 25.6891,72.3567 26.5224,73.0233 27.5,73.5C 30.1599,72.2974 32.8265,72.2974 35.5,73.5C 36.1667,73.8333 36.8333,74.1667 37.5,74.5C 37.3284,75.4916 37.6618,76.1583 38.5,76.5C 34.8441,77.6955 31.3441,77.0288 28,74.5C 26.6667,75.1667 25.6667,76.1667 25,77.5C 22.2337,74.2232 19.067,71.5566 15.5,69.5C 9.77024,62.6219 6.77024,54.6219 6.5,45.5C 7.30912,43.7078 7.80912,41.7078 8,39.5C 11.0595,42.9524 13.0595,46.9524 14,51.5C 15.995,53.747 18.495,54.747 21.5,54.5 Z"/></g>
<g><path style="opacity:1" fill="#b2a57d" d="M 38.5,57.5 C 41.0098,57.9267 43.3432,58.5933 45.5,59.5C 45.5,60.1667 45.5,60.8333 45.5,61.5C 45.5,62.5 45.5,63.5 45.5,64.5C 45.1667,64.5 44.8333,64.5 44.5,64.5C 44.1667,64.5 43.8333,64.5 43.5,64.5C 41.6329,63.2402 40.2995,61.5735 39.5,59.5C 39.1667,58.8333 38.8333,58.1667 38.5,57.5 Z"/></g>
<g><path style="opacity:1" fill="#153b8a" d="M 24.5,59.5 C 25.0435,63.046 27.0435,65.3793 30.5,66.5C 31.2811,67.7287 31.7811,69.062 32,70.5C 33.5185,71.1634 34.6851,72.1634 35.5,73.5C 32.8265,72.2974 30.1599,72.2974 27.5,73.5C 26.5224,73.0233 25.6891,72.3567 25,71.5C 24.6667,71.8333 24.3333,72.1667 24,72.5C 22.1667,70.3333 20.3333,68.1667 18.5,66C 19.3081,65.6924 19.9747,65.1924 20.5,64.5C 19.6171,63.452 18.9504,62.2853 18.5,61C 19.8977,59.3511 19.5644,58.0178 17.5,57C 20.2417,56.7048 22.575,57.5381 24.5,59.5 Z"/></g>
<g><path style="opacity:1" fill="#326db7" d="M 16.5,32.5 C 17.1174,32.6107 17.6174,32.944 18,33.5C 18.3333,36.5 18.6667,39.5 19,42.5C 19.3768,43.9423 20.2101,44.9423 21.5,45.5C 22.9285,48.072 24.2618,50.7387 25.5,53.5C 25.8333,53.5 26.1667,53.5 26.5,53.5C 31.3568,58.156 35.6901,63.156 39.5,68.5C 39.7031,70.0443 40.3698,71.3777 41.5,72.5C 40.8981,75.159 39.5648,75.8256 37.5,74.5C 36.8333,74.1667 36.1667,73.8333 35.5,73.5C 34.6851,72.1634 33.5185,71.1634 32,70.5C 31.7811,69.062 31.2811,67.7287 30.5,66.5C 27.0435,65.3793 25.0435,63.046 24.5,59.5C 25.5735,58.7494 25.7401,57.7494 25,56.5C 23.6976,55.9152 22.531,55.2485 21.5,54.5C 19.703,53.607 18.3696,52.2737 17.5,50.5C 18.1386,49.9032 18.472,49.0698 18.5,48C 17.3425,42.8899 16.6759,37.7233 16.5,32.5 Z"/></g>
<g><path style="opacity:1" fill="#f1f1f1" d="M 89.5,61.5 C 89.4609,63.3588 90.2942,64.6921 92,65.5C 92.4995,71.8246 92.6662,78.1579 92.5,84.5C 84.864,86.6589 77.1973,88.6589 69.5,90.5C 68.5,90.5 67.5,90.5 66.5,90.5C 66.6716,89.5084 66.3382,88.8417 65.5,88.5C 64.209,88.7373 63.209,88.404 62.5,87.5C 62.5756,81.8085 62.5756,75.8085 62.5,69.5C 66.5817,69.6564 70.5817,69.1564 74.5,68C 79.536,65.8128 84.536,63.6462 89.5,61.5 Z"/></g>
<g><path style="opacity:0.976" fill="#8cb8e0" d="M 119.5,34.5 C 119.5,49.1667 119.5,63.8333 119.5,78.5C 117.097,78.448 114.764,78.7814 112.5,79.5C 109.994,80.7496 107.327,81.4162 104.5,81.5C 102.577,85.0293 101.911,89.0293 102.5,93.5C 102.167,93.5 101.833,93.5 101.5,93.5C 101.5,92.8333 101.5,92.1667 101.5,91.5C 101.334,82.1607 101.5,72.8274 102,63.5C 105.795,63.943 108.628,62.2763 110.5,58.5C 114.115,54.9408 116.449,50.6074 117.5,45.5C 118.103,41.7272 118.77,38.0606 119.5,34.5 Z"/></g>
<g><path style="opacity:1" fill="#4c8ac6" d="M 26.5,53.5 C 29.4571,53.5229 31.9571,54.5229 34,56.5C 34.3333,56.1667 34.6667,55.8333 35,55.5C 36.113,56.7604 36.2797,57.927 35.5,59C 36.7932,59.49 38.1266,59.6567 39.5,59.5C 40.2995,61.5735 41.6329,63.2402 43.5,64.5C 41.0428,66.0009 41.0428,67.6676 43.5,69.5C 42.0413,69.5674 40.7079,69.2341 39.5,68.5C 35.6901,63.156 31.3568,58.156 26.5,53.5 Z"/></g>
<g><path style="opacity:1" fill="#e5e4e4" d="M 97.5,22.5 C 97.2887,42.8081 98.2887,62.8081 100.5,82.5C 97.8333,83.1667 95.1667,83.8333 92.5,84.5C 92.6662,78.1579 92.4995,71.8246 92,65.5C 90.2942,64.6921 89.4609,63.3588 89.5,61.5C 89.3335,49.8286 89.5001,38.1619 90,26.5C 92.1575,24.5056 94.6575,23.1723 97.5,22.5 Z"/></g>
<g><path style="opacity:1" fill="#9dc3e2" d="M 44.5,64.5 C 44.8333,64.5 45.1667,64.5 45.5,64.5C 46.8734,64.3433 48.2068,64.51 49.5,65C 51.596,65.7365 53.2627,66.9032 54.5,68.5C 51.1401,68.3841 47.8067,68.0508 44.5,67.5C 44.5,66.5 44.5,65.5 44.5,64.5 Z"/></g>
<g><path style="opacity:1" fill="#6493c0" d="M 43.5,64.5 C 43.8333,64.5 44.1667,64.5 44.5,64.5C 44.5,65.5 44.5,66.5 44.5,67.5C 47.8067,68.0508 51.1401,68.3841 54.5,68.5C 55.9187,69.4511 57.5853,69.7845 59.5,69.5C 59.5,70.5 59.5,71.5 59.5,72.5C 59.5,73.1667 59.1667,73.5 58.5,73.5C 55.023,72.6773 51.3563,72.1773 47.5,72C 45.6803,71.7996 44.347,70.9663 43.5,69.5C 41.0428,67.6676 41.0428,66.0009 43.5,64.5 Z"/></g>
<g><path style="opacity:0.125" fill="#0e0e10" d="M 17.5,73.5 C 17.8333,74.8333 18.1667,74.8333 18.5,73.5C 21.192,75.8623 23.8587,78.1956 26.5,80.5C 24.8333,80.5 23.1667,80.5 21.5,80.5C 20.1667,80.5 18.8333,80.5 17.5,80.5C 16.7402,79.1067 16.0735,77.6067 15.5,76C 15.6842,74.6244 16.3509,73.7911 17.5,73.5 Z"/></g>
<g><path style="opacity:1" fill="#685f46" d="M 59.5,72.5 C 60.4614,74.2646 60.7947,76.2646 60.5,78.5C 59.0048,78.0113 57.6715,77.3446 56.5,76.5C 57.4013,75.7095 58.0679,74.7095 58.5,73.5C 59.1667,73.5 59.5,73.1667 59.5,72.5 Z"/></g>
<g><path style="opacity:1" fill="#3f6da4" d="M 39.5,68.5 C 40.7079,69.2341 42.0413,69.5674 43.5,69.5C 44.347,70.9663 45.6803,71.7996 47.5,72C 51.3563,72.1773 55.023,72.6773 58.5,73.5C 58.0679,74.7095 57.4013,75.7095 56.5,76.5C 54.6208,77.3414 52.6208,77.6747 50.5,77.5C 50.7373,78.791 50.404,79.791 49.5,80.5C 45.8333,79.1667 42.1667,77.8333 38.5,76.5C 37.6618,76.1583 37.3284,75.4916 37.5,74.5C 39.5648,75.8256 40.8981,75.159 41.5,72.5C 40.3698,71.3777 39.7031,70.0443 39.5,68.5 Z"/></g>
<g><path style="opacity:1" fill="#b9b7af" d="M 61.5,60.5 C 61.5,69.5 61.5,78.5 61.5,87.5C 60.8333,87.5 60.5,87.1667 60.5,86.5C 60.5,83.8333 60.5,81.1667 60.5,78.5C 60.7947,76.2646 60.4614,74.2646 59.5,72.5C 59.5,71.5 59.5,70.5 59.5,69.5C 57.5853,69.7845 55.9187,69.4511 54.5,68.5C 53.2627,66.9032 51.596,65.7365 49.5,65C 48.2068,64.51 46.8734,64.3433 45.5,64.5C 45.5,63.5 45.5,62.5 45.5,61.5C 46.4163,61.9817 47.4163,62.315 48.5,62.5C 50.3365,61.0667 52.3365,60.5667 54.5,61C 51.5315,63.1777 51.8649,64.3444 55.5,64.5C 55.3838,67.9103 57.0504,69.2436 60.5,68.5C 60.6621,66.4727 60.4955,64.4727 60,62.5C 58.4905,61.9103 56.9905,61.2436 55.5,60.5C 57.4595,59.4808 59.4595,59.4808 61.5,60.5 Z"/></g>
<g><path style="opacity:0.51" fill="#1f71c4" d="M 119.5,78.5 C 119.218,79.7777 118.551,80.7777 117.5,81.5C 117.167,81.5 116.833,81.5 116.5,81.5C 114.62,81.7709 113.287,81.1042 112.5,79.5C 114.764,78.7814 117.097,78.448 119.5,78.5 Z"/></g>
<g><path style="opacity:1" fill="#23457a" d="M 15.5,69.5 C 19.067,71.5566 22.2337,74.2232 25,77.5C 25.6667,76.1667 26.6667,75.1667 28,74.5C 31.3441,77.0288 34.8441,77.6955 38.5,76.5C 42.1667,77.8333 45.8333,79.1667 49.5,80.5C 49.9613,83.3033 51.2947,85.6366 53.5,87.5C 43.7063,88.1351 34.7063,85.8018 26.5,80.5C 23.8587,78.1956 21.192,75.8623 18.5,73.5C 18.1667,73.5 17.8333,73.5 17.5,73.5C 16.8333,72.1667 16.1667,70.8333 15.5,69.5 Z"/></g>
<g><path style="opacity:1" fill="#2a466a" d="M 56.5,76.5 C 57.6715,77.3446 59.0048,78.0113 60.5,78.5C 60.5,81.1667 60.5,83.8333 60.5,86.5C 58.1944,86.9926 55.861,87.3259 53.5,87.5C 51.2947,85.6366 49.9613,83.3033 49.5,80.5C 50.404,79.791 50.7373,78.791 50.5,77.5C 52.6208,77.6747 54.6208,77.3414 56.5,76.5 Z"/></g>
<g><path style="opacity:1" fill="#5b7ea5" d="M 112.5,79.5 C 113.287,81.1042 114.62,81.7709 116.5,81.5C 116.937,83.0744 117.937,84.2411 119.5,85C 117.893,84.9813 116.226,84.8146 114.5,84.5C 111.021,83.9819 107.688,82.9819 104.5,81.5C 107.327,81.4162 109.994,80.7496 112.5,79.5 Z"/></g>
<g><path style="opacity:1" fill="#cdcccc" d="M 100.5,82.5 C 100.5,85.1667 100.5,87.8333 100.5,90.5C 89.975,90.7104 79.6417,90.7104 69.5,90.5C 77.1973,88.6589 84.864,86.6589 92.5,84.5C 95.1667,83.8333 97.8333,83.1667 100.5,82.5 Z"/></g>
<g><path style="opacity:1" fill="#6d99c6" d="M 104.5,81.5 C 107.688,82.9819 111.021,83.9819 114.5,84.5C 110.482,87.5244 106.482,90.5244 102.5,93.5C 101.911,89.0293 102.577,85.0293 104.5,81.5 Z"/></g>
<g><path style="opacity:1" fill="#797673" d="M 21.5,80.5 C 23.1667,80.5 24.8333,80.5 26.5,80.5C 34.7063,85.8018 43.7063,88.1351 53.5,87.5C 55.861,87.3259 58.1944,86.9926 60.5,86.5C 60.5,87.1667 60.8333,87.5 61.5,87.5C 61.8333,87.5 62.1667,87.5 62.5,87.5C 63.209,88.404 64.209,88.7373 65.5,88.5C 64.3784,89.1558 63.0451,89.4892 61.5,89.5C 52.1818,88.7784 42.8485,88.2784 33.5,88C 31.257,86.8638 28.9237,86.0305 26.5,85.5C 25.6906,84.5313 24.6906,83.6979 23.5,83C 23.8333,82.6667 24.1667,82.3333 24.5,82C 23.2625,81.7679 22.2625,81.2679 21.5,80.5 Z"/></g>
<g><path style="opacity:1" fill="#b5b5b5" d="M 17.5,80.5 C 18.8333,80.5 20.1667,80.5 21.5,80.5C 22.2625,81.2679 23.2625,81.7679 24.5,82C 24.1667,82.3333 23.8333,82.6667 23.5,83C 24.6906,83.6979 25.6906,84.5313 26.5,85.5C 28.5764,87.5841 30.9097,89.2508 33.5,90.5C 31.8008,90.6602 30.1341,90.4935 28.5,90C 24.5176,86.6771 20.0176,84.5104 15,83.5C 11.9883,83.7261 9.15498,84.5594 6.5,86C 5.61983,87.3561 5.28649,88.8561 5.5,90.5C 1.81617,89.628 0.816172,87.4614 2.5,84C 7.24603,81.7301 12.246,80.5634 17.5,80.5 Z"/></g>
<g><path style="opacity:1" fill="#9d9c9c" d="M 26.5,85.5 C 28.9237,86.0305 31.257,86.8638 33.5,88C 42.8485,88.2784 52.1818,88.7784 61.5,89.5C 63.0451,89.4892 64.3784,89.1558 65.5,88.5C 66.3382,88.8417 66.6716,89.5084 66.5,90.5C 55.5,90.5 44.5,90.5 33.5,90.5C 30.9097,89.2508 28.5764,87.5841 26.5,85.5 Z"/></g>
<g><path style="opacity:0.882" fill="#d0d0d1" d="M 116.5,81.5 C 116.833,81.5 117.167,81.5 117.5,81.5C 120.508,81.8774 123.008,83.2107 125,85.5C 125.684,86.7839 125.517,87.9505 124.5,89C 117.529,92.4091 110.196,94.5758 102.5,95.5C 101.5,95.5 100.5,95.5 99.5,95.5C 99.5,94.1667 100.167,93.5 101.5,93.5C 101.833,93.5 102.167,93.5 102.5,93.5C 106.482,90.5244 110.482,87.5244 114.5,84.5C 116.226,84.8146 117.893,84.9813 119.5,85C 117.937,84.2411 116.937,83.0744 116.5,81.5 Z"/></g>
<g><path style="opacity:1" fill="#d8d7d7" d="M 33.5,90.5 C 44.5,90.5 55.5,90.5 66.5,90.5C 67.5,90.5 68.5,90.5 69.5,90.5C 79.6417,90.7104 89.975,90.7104 100.5,90.5C 100.5,90.8333 100.5,91.1667 100.5,91.5C 97.023,92.3227 93.3563,92.8227 89.5,93C 87.4156,93.6972 85.7489,94.8639 84.5,96.5C 78.69,97.4896 72.69,97.8229 66.5,97.5C 66.5,96.1667 66.5,94.8333 66.5,93.5C 64.8333,93.5 63.1667,93.5 61.5,93.5C 56.8333,93.5 52.1667,93.5 47.5,93.5C 41.013,92.346 34.3464,92.1794 27.5,93C 28.3279,93.9147 29.3279,94.5814 30.5,95C 29.944,95.3826 29.6107,95.8826 29.5,96.5C 21.1868,95.6387 13.1868,93.6387 5.5,90.5C 5.28649,88.8561 5.61983,87.3561 6.5,86C 9.15498,84.5594 11.9883,83.7261 15,83.5C 20.0176,84.5104 24.5176,86.6771 28.5,90C 30.1341,90.4935 31.8008,90.6602 33.5,90.5 Z"/></g>
<g><path style="opacity:0.404" fill="#aba9a8" d="M 47.5,93.5 C 44.8127,93.3359 42.146,93.5026 39.5,94C 46.58,96.2389 53.9133,97.0722 61.5,96.5C 61.5,95.5 61.5,94.5 61.5,93.5C 63.1667,93.5 64.8333,93.5 66.5,93.5C 66.5,94.8333 66.5,96.1667 66.5,97.5C 62.5,97.5 58.5,97.5 54.5,97.5C 48.155,97.3473 41.8217,97.014 35.5,96.5C 33.5,96.5 31.5,96.5 29.5,96.5C 29.6107,95.8826 29.944,95.3826 30.5,95C 29.3279,94.5814 28.3279,93.9147 27.5,93C 34.3464,92.1794 41.013,92.346 47.5,93.5 Z"/></g>
<g><path style="opacity:1" fill="#717578" d="M 47.5,93.5 C 52.1667,93.5 56.8333,93.5 61.5,93.5C 61.5,94.5 61.5,95.5 61.5,96.5C 53.9133,97.0722 46.58,96.2389 39.5,94C 42.146,93.5026 44.8127,93.3359 47.5,93.5 Z"/></g>
<g><path style="opacity:1" fill="#9f9fa0" d="M 100.5,91.5 C 100.833,91.5 101.167,91.5 101.5,91.5C 101.5,92.1667 101.5,92.8333 101.5,93.5C 100.167,93.5 99.5,94.1667 99.5,95.5C 98.209,95.2627 97.209,95.596 96.5,96.5C 92.5,96.5 88.5,96.5 84.5,96.5C 85.7489,94.8639 87.4156,93.6972 89.5,93C 93.3563,92.8227 97.023,92.3227 100.5,91.5 Z"/></g>
<g><path style="opacity:1" fill="#f6f6f6" d="M 113.5,100.5 C 113.5,101.833 113.5,103.167 113.5,104.5C 113.167,106.5 112.833,108.5 112.5,110.5C 110.99,109.272 109.49,109.272 108,110.5C 107.502,107.183 107.335,103.85 107.5,100.5C 109.5,100.5 111.5,100.5 113.5,100.5 Z"/></g>
<g><path style="opacity:1" fill="#818284" d="M 125.5,102.5 C 125.5,102.833 125.5,103.167 125.5,103.5C 121.833,103.5 118.167,103.5 114.5,103.5C 114.5,102.167 114.5,100.833 114.5,99.5C 117.833,99.5 121.167,99.5 124.5,99.5C 124.263,100.791 124.596,101.791 125.5,102.5 Z"/></g>
<g><path style="opacity:1" fill="#d79775" d="M 96.5,96.5 C 97.209,95.596 98.209,95.2627 99.5,95.5C 100.5,95.5 101.5,95.5 102.5,95.5C 104.139,96.4725 105.473,97.8058 106.5,99.5C 106.5,102.167 106.5,104.833 106.5,107.5C 96.7593,107.509 87.0926,107.509 77.5,107.5C 74.3992,107.308 71.3992,106.642 68.5,105.5C 68.1667,106.167 67.8333,106.833 67.5,107.5C 63.9722,106.079 60.3055,105.412 56.5,105.5C 49.3158,102.736 42.3158,99.7363 35.5,96.5C 41.8217,97.014 48.155,97.3473 54.5,97.5C 54.4606,98.5832 54.1272,99.5832 53.5,100.5C 61.9917,102.983 70.6583,104.483 79.5,105C 78.0001,103.885 76.3334,103.052 74.5,102.5C 73.6143,101.675 73.281,100.675 73.5,99.5C 76.2706,99.4207 78.9373,99.9207 81.5,101C 78.9397,103.336 79.6063,104.503 83.5,104.5C 88.5512,103.965 92.8845,101.965 96.5,98.5C 98.3313,99.9294 100.331,100.429 102.5,100C 100.937,98.0527 98.9366,96.886 96.5,96.5 Z"/></g>
<g><path style="opacity:1" fill="#efb48f" d="M 84.5,96.5 C 88.5,96.5 92.5,96.5 96.5,96.5C 98.9366,96.886 100.937,98.0527 102.5,100C 100.331,100.429 98.3313,99.9294 96.5,98.5C 92.8845,101.965 88.5512,103.965 83.5,104.5C 79.6063,104.503 78.9397,103.336 81.5,101C 78.9373,99.9207 76.2706,99.4207 73.5,99.5C 73.281,100.675 73.6143,101.675 74.5,102.5C 76.3334,103.052 78.0001,103.885 79.5,105C 70.6583,104.483 61.9917,102.983 53.5,100.5C 54.1272,99.5832 54.4606,98.5832 54.5,97.5C 58.5,97.5 62.5,97.5 66.5,97.5C 72.69,97.8229 78.69,97.4896 84.5,96.5 Z"/></g>
<g><path style="opacity:1" fill="#636264" d="M 125.5,102.5 C 124.596,101.791 124.263,100.791 124.5,99.5C 121.167,99.5 117.833,99.5 114.5,99.5C 114.5,100.833 114.5,102.167 114.5,103.5C 118.167,103.5 121.833,103.5 125.5,103.5C 125.5,103.833 125.5,104.167 125.5,104.5C 124.596,105.209 124.263,106.209 124.5,107.5C 121.167,107.5 117.833,107.5 114.5,107.5C 114.737,106.209 114.404,105.209 113.5,104.5C 113.5,103.167 113.5,101.833 113.5,100.5C 113.5,100.167 113.5,99.8333 113.5,99.5C 117.298,98.5166 121.298,98.1832 125.5,98.5C 125.5,99.8333 125.5,101.167 125.5,102.5 Z"/></g>
<g><path style="opacity:1" fill="#915f4a" d="M 56.5,105.5 C 60.3055,105.412 63.9722,106.079 67.5,107.5C 67.8333,106.833 68.1667,106.167 68.5,105.5C 71.3992,106.642 74.3992,107.308 77.5,107.5C 77.9175,108.222 78.5842,108.722 79.5,109C 76.9644,109.186 74.631,109.686 72.5,110.5C 66.7004,110.009 61.367,108.343 56.5,105.5 Z"/></g>
<g><path style="opacity:1" fill="#cdcece" d="M 106.5,99.5 C 108.833,99.5 111.167,99.5 113.5,99.5C 113.5,99.8333 113.5,100.167 113.5,100.5C 111.5,100.5 109.5,100.5 107.5,100.5C 107.335,103.85 107.502,107.183 108,110.5C 109.49,109.272 110.99,109.272 112.5,110.5C 112.5,111.5 112.5,112.5 112.5,113.5C 110.421,113.029 108.421,112.363 106.5,111.5C 106.5,110.167 106.5,108.833 106.5,107.5C 106.5,104.833 106.5,102.167 106.5,99.5 Z"/></g>
<g><path style="opacity:1" fill="#b37257" d="M 106.5,107.5 C 106.5,108.833 106.5,110.167 106.5,111.5C 106.5,112.167 106.167,112.5 105.5,112.5C 105.239,109.085 104.072,109.085 102,112.5C 101.439,111.978 100.772,111.645 100,111.5C 94.989,112.075 91.489,113.075 89.5,114.5C 83.5451,113.927 77.8785,112.593 72.5,110.5C 74.631,109.686 76.9644,109.186 79.5,109C 78.5842,108.722 77.9175,108.222 77.5,107.5C 87.0926,107.509 96.7593,107.509 106.5,107.5 Z"/></g>
<g><path style="opacity:1" fill="#322f30" d="M 113.5,104.5 C 114.404,105.209 114.737,106.209 114.5,107.5C 117.833,107.5 121.167,107.5 124.5,107.5C 124.5,109.167 124.5,110.833 124.5,112.5C 120.258,112.151 116.258,112.817 112.5,114.5C 112.5,114.167 112.5,113.833 112.5,113.5C 112.5,112.5 112.5,111.5 112.5,110.5C 112.833,108.5 113.167,106.5 113.5,104.5 Z"/></g>
<g><path style="opacity:1" fill="#a35840" d="M 105.5,112.5 C 105.5,114.167 105.5,115.833 105.5,117.5C 100.045,116.657 94.7121,115.657 89.5,114.5C 91.489,113.075 94.989,112.075 100,111.5C 100.772,111.645 101.439,111.978 102,112.5C 104.072,109.085 105.239,109.085 105.5,112.5 Z"/></g>
<g><path style="opacity:1" fill="#1f1c1d" d="M 125.5,104.5 C 125.5,112.167 125.5,119.833 125.5,127.5C 120.833,127.5 116.167,127.5 111.5,127.5C 111.5,125.833 111.5,124.167 111.5,122.5C 112.434,123.568 112.768,124.901 112.5,126.5C 116.5,126.5 120.5,126.5 124.5,126.5C 124.5,124.167 124.5,121.833 124.5,119.5C 120.326,119.334 116.326,120 112.5,121.5C 112.5,119.167 112.5,116.833 112.5,114.5C 116.258,112.817 120.258,112.151 124.5,112.5C 124.5,110.833 124.5,109.167 124.5,107.5C 124.263,106.209 124.596,105.209 125.5,104.5 Z"/></g>
<g><path style="opacity:1" fill="#979a9c" d="M 106.5,111.5 C 108.421,112.363 110.421,113.029 112.5,113.5C 112.5,113.833 112.5,114.167 112.5,114.5C 112.5,116.833 112.5,119.167 112.5,121.5C 112.167,121.5 111.833,121.5 111.5,121.5C 109.076,121.808 106.743,121.474 104.5,120.5C 105.127,119.583 105.461,118.583 105.5,117.5C 105.5,115.833 105.5,114.167 105.5,112.5C 106.167,112.5 106.5,112.167 106.5,111.5 Z"/></g>
<g><path style="opacity:1" fill="#333334" d="M 111.5,122.5 C 111.5,122.167 111.5,121.833 111.5,121.5C 111.833,121.5 112.167,121.5 112.5,121.5C 116.326,120 120.326,119.334 124.5,119.5C 124.5,121.833 124.5,124.167 124.5,126.5C 120.5,126.5 116.5,126.5 112.5,126.5C 112.768,124.901 112.434,123.568 111.5,122.5 Z"/></g>
</svg>
